<?xml version="1.0" encoding="utf-8"?>
<!-- Generator: Adobe Illustrator 19.2.1, SVG Export Plug-In . SVG Version: 6.00 Build 0)  -->
<svg version="1.1" id="Layer_1" xmlns="http://www.w3.org/2000/svg" xmlns:xlink="http://www.w3.org/1999/xlink" x="0px" y="0px"
	 viewBox="0 0 81.1 80.7" style="enable-background:new 0 0 81.1 80.7;" xml:space="preserve">
<style type="text/css">
	.st0{fill:none;stroke:#FCA408;stroke-width:2;stroke-miterlimit:10;}
	.st1{fill:#FFCE00;}
</style>
<circle class="st0" cx="40.5" cy="39.9" r="38.5"/>
<g>
	<path class="st1" d="M19.6,40.9h39.7L43,61.3c-0.3,0.4-0.3,1.1,0.2,1.4c0.4,0.3,1.1,0.3,1.4-0.2l17.6-22c0.1-0.2,0.2-0.4,0.2-0.6
		l0,0l0,0l0,0c0-0.2-0.1-0.5-0.2-0.6l-17.6-22c-0.2-0.2-0.5-0.4-0.8-0.4c-0.2,0-0.4,0.1-0.6,0.2c-0.4,0.3-0.5,1-0.2,1.4l16.3,20.4
		H19.6c-0.6,0-1,0.4-1,1S19,40.9,19.6,40.9z"/>
</g>
</svg>
