<svg width="229" height="149" viewBox="0 0 229 149" fill="none" xmlns="http://www.w3.org/2000/svg">
<path fill-rule="evenodd" clip-rule="evenodd" d="M164.592 20.9251C151.023 8.40632 132.808 0.728516 112.767 0.728516C93.3104 0.728516 75.5915 7.97985 62.1591 19.8569C62.87 21.5669 63.806 23.7592 64.684 25.3738C64.7641 25.3138 64.8345 25.2593 64.9159 25.1994C68.4584 22.3558 73.6325 19.2084 79.0152 16.7C84.4806 14.3183 90.1504 12.686 94.4604 11.9284C95.522 11.6736 96.5173 11.5578 97.3995 11.4638C98.2775 11.3575 99.0423 11.2662 99.6732 11.194C100.924 11.0442 101.643 10.961 101.643 10.961C101.643 10.961 100.952 11.175 99.7464 11.5524C99.1486 11.7377 98.4155 11.9679 97.5817 12.2282C96.7493 12.4803 95.8119 12.7664 94.8276 13.2078C90.8117 14.7121 85.741 17.2818 81.1398 20.4033C76.6117 23.6638 72.5295 27.3399 69.8872 30.4396C69.5407 30.813 69.2163 31.1699 68.9029 31.5092C68.8463 31.5828 68.798 31.6455 68.7427 31.7163C70.0556 33.4835 71.4706 35.1812 73.0058 36.7958C83.1691 26.6736 97.2269 20.372 112.767 20.372C114.261 20.372 115.737 20.4483 117.202 20.5627C131.484 21.6745 144.269 28.0838 153.544 37.8095C154.257 38.5548 154.941 39.3287 155.609 40.1135C155.681 40.1966 155.748 40.2811 155.817 40.3629C156.463 41.1286 157.086 41.9107 157.691 42.7105V42.7118C159.277 44.8129 160.715 47.0269 161.994 49.3405L161.997 49.3419C162.455 50.1757 162.897 51.0219 163.315 51.8816C163.336 51.9252 163.358 51.9674 163.378 52.0097C163.805 52.8912 164.214 53.7837 164.592 54.6911C164.966 54.345 165.329 53.9881 165.698 53.6352C170.571 48.9495 174.817 43.6356 178.281 37.8095C174.558 31.5419 169.935 25.8561 164.592 20.9251Z" fill="white"/>
<path fill-rule="evenodd" clip-rule="evenodd" d="M159.151 51.4083C158.228 52.0705 157.23 52.7872 156.175 53.5462C155.651 53.9222 155.112 54.3078 154.56 54.7016C153.997 55.075 153.389 55.4224 152.79 55.7889C151.597 56.5342 150.35 57.27 149.025 57.9281C148.376 58.2688 147.722 58.6121 147.059 58.9555L145.027 59.8739C139.602 62.3319 133.898 63.9043 129.598 64.6823C128.52 64.8635 127.536 65.0339 126.663 65.1824C125.782 65.275 125.016 65.3568 124.384 65.4263C123.126 65.5584 122.405 65.6348 122.405 65.6348C122.405 65.6348 123.1 65.429 124.312 65.0707C124.914 64.8881 125.641 64.6687 126.481 64.418C127.301 64.1155 128.222 63.7749 129.23 63.4015C133.233 61.8795 138.345 59.3684 142.902 56.1718L144.608 54.9823C145.147 54.5545 145.689 54.1266 146.224 53.7042C147.312 52.8867 148.31 52.0024 149.26 51.1304C149.735 50.6971 150.217 50.2897 150.66 49.8605C151.084 49.4122 151.499 48.9748 151.905 48.5483C152.713 47.7049 153.473 46.9037 154.176 46.1611C154.589 45.7128 154.958 45.2755 155.295 44.8572C153.987 43.0995 152.576 41.4072 151.046 39.8007C140.886 49.9218 126.827 56.2236 111.281 56.2236C109.774 56.2236 108.287 56.1459 106.81 56.0287C92.5449 54.9101 79.7713 48.5034 70.5017 38.787C69.7852 38.0376 69.1004 37.2596 68.4266 36.472C68.3604 36.3916 68.2941 36.3126 68.2306 36.2336C65.2774 32.7304 62.7523 28.8689 60.7365 24.7172C60.7117 24.6655 60.6868 24.6164 60.6606 24.5646C60.2381 23.6899 59.8322 22.8042 59.4567 21.9036C59.0825 22.2497 58.7194 22.6066 58.3508 22.9595C53.4744 27.6426 49.229 32.958 45.7664 38.787C49.4899 45.0534 54.1109 50.7379 59.4567 55.6704C73.0269 68.1895 91.2402 75.8662 111.281 75.8662C130.734 75.8662 148.456 68.6187 161.888 56.7454C161.177 55.0395 160.254 52.8404 159.376 51.2271C159.297 51.2884 159.231 51.347 159.151 51.4083Z" fill="white"/>
<path fill-rule="evenodd" clip-rule="evenodd" d="M4.91138 106.219V111.646H8.37015C9.02143 111.646 9.55176 111.562 9.96347 111.391C10.3752 111.223 10.6962 111.003 10.9311 110.734C11.1637 110.465 11.3219 110.163 11.4102 109.822C11.4963 109.484 11.5405 109.139 11.5405 108.791C11.5405 108.392 11.4893 108.033 11.387 107.713C11.2846 107.394 11.1125 107.126 10.866 106.907C10.6171 106.687 10.2914 106.519 9.88438 106.399C9.47733 106.279 8.96328 106.219 8.34456 106.219H4.91138ZM4.91138 102.832H7.47231C8.01195 102.832 8.50273 102.791 8.9377 102.712C9.37499 102.63 9.74482 102.491 10.0495 102.292C10.3566 102.093 10.5868 101.817 10.7497 101.467C10.9078 101.119 10.9869 100.678 10.9869 100.147C10.9869 99.6268 10.9241 99.1949 10.7985 98.8519C10.6729 98.5064 10.4798 98.2281 10.217 98.0194C9.95649 97.8083 9.62387 97.6595 9.2238 97.5707C8.8214 97.4796 8.34456 97.434 7.78865 97.434H4.91138V102.832ZM0 115.484V93.6262H7.78747C9.25053 93.6262 10.4973 93.7678 11.5254 94.0485C12.5511 94.3292 13.3908 94.725 14.0398 95.236C14.6887 95.7494 15.1609 96.3708 15.4563 97.1049C15.7517 97.8367 15.9006 98.6548 15.9006 99.5592C15.9006 100.051 15.8308 100.524 15.6959 100.982C15.561 101.438 15.347 101.867 15.0562 102.268C14.7655 102.671 14.391 103.033 13.9374 103.359C13.4839 103.686 12.9349 103.971 12.2953 104.211C13.6886 104.559 14.7236 105.125 15.3912 105.907C16.0588 106.689 16.3937 107.695 16.3937 108.921C16.3937 109.847 16.2193 110.71 15.8704 111.507C15.5215 112.306 15.0121 112.999 14.3375 113.594C13.6653 114.187 12.8326 114.65 11.844 114.983C10.8578 115.317 9.72736 115.484 8.45736 115.484H0Z" fill="white"/>
<path fill-rule="evenodd" clip-rule="evenodd" d="M27.5375 111.437H35.5194V115.484H22.5411V93.6262H27.5375V111.437Z" fill="white"/>
<path fill-rule="evenodd" clip-rule="evenodd" d="M47.5967 107.131H53.4961L51.5099 101.237C51.3817 100.862 51.2298 100.423 51.059 99.9148C50.8857 99.4086 50.7125 98.8592 50.5464 98.2666C50.3898 98.8688 50.2237 99.4254 50.0575 99.9364C49.8891 100.45 49.7301 100.894 49.5829 101.268L47.5967 107.131ZM61.4762 115.484H57.5915C57.1548 115.484 56.7965 115.381 56.5165 115.177C56.2341 114.973 56.0395 114.71 55.9303 114.39L54.6536 110.581H46.4381L45.1638 114.39C45.0641 114.671 44.8719 114.923 44.5847 115.146C44.2976 115.372 43.9464 115.484 43.5311 115.484H39.6179L47.9806 93.6262H53.1111L61.4762 115.484Z" fill="white"/>
<path fill-rule="evenodd" clip-rule="evenodd" d="M80.4271 109.719C80.544 109.719 80.661 109.742 80.7756 109.787C80.8925 109.832 81.0048 109.909 81.1123 110.017L83.0722 112.132C82.2139 113.24 81.1404 114.076 79.8494 114.639C78.5585 115.203 77.0313 115.484 75.2679 115.484C73.6519 115.484 72.1996 115.207 70.9203 114.656C69.6387 114.102 68.5536 113.339 67.6602 112.365C66.7691 111.39 66.0839 110.238 65.6068 108.9C65.1297 107.566 64.8912 106.113 64.8912 104.547C64.8912 102.953 65.1648 101.488 65.7097 100.152C66.2546 98.8144 67.0194 97.664 67.997 96.6945C68.9769 95.725 70.1462 94.9714 71.5097 94.4338C72.8755 93.8962 74.3816 93.6262 76.028 93.6262C76.8255 93.6262 77.5786 93.6966 78.2849 93.8399C78.9911 93.9831 79.653 94.1779 80.2657 94.4291C80.8785 94.6803 81.4444 94.9808 81.9613 95.3282C82.4781 95.678 82.9342 96.063 83.3341 96.4856L81.6689 98.7322C81.5614 98.8684 81.4351 98.9928 81.2877 99.1055C81.1427 99.2181 80.9393 99.2745 80.6727 99.2745C80.4996 99.2745 80.3335 99.2346 80.1792 99.1571C80.0225 99.0796 79.8565 98.9834 79.6811 98.8707C79.5057 98.758 79.3115 98.6359 79.1057 98.5045C78.8953 98.373 78.645 98.2509 78.3574 98.1359C78.0697 98.0256 77.7353 97.9293 77.3517 97.8519C76.9658 97.7744 76.5145 97.7345 75.9976 97.7345C75.1019 97.7345 74.2834 97.8918 73.5443 98.211C72.8006 98.528 72.1668 98.9834 71.636 99.575C71.1051 100.167 70.6911 100.883 70.3941 101.723C70.0971 102.566 69.9498 103.51 69.9498 104.554C69.9498 105.65 70.0971 106.625 70.3941 107.475C70.6911 108.327 71.0957 109.043 71.6079 109.623C72.1177 110.207 72.7141 110.648 73.397 110.951C74.0776 111.254 74.8096 111.407 75.5907 111.407C76.0374 111.407 76.4466 111.383 76.8162 111.341C77.1857 111.296 77.5295 111.221 77.8452 111.113C78.1632 111.005 78.4649 110.867 78.7526 110.695C79.0403 110.524 79.3302 110.31 79.6226 110.057C79.7395 109.958 79.8658 109.878 80.0015 109.815C80.1394 109.752 80.2821 109.719 80.4271 109.719Z" fill="white"/>
<path fill-rule="evenodd" clip-rule="evenodd" d="M93.2504 102.472H94.072C94.8304 102.472 95.3774 102.237 95.7128 101.769L100.696 94.6314C100.968 94.2428 101.279 93.9765 101.627 93.8373C101.977 93.6982 102.405 93.6262 102.913 93.6262H107.379L100.815 102.469C100.584 102.788 100.339 103.055 100.088 103.263C99.8331 103.475 99.5755 103.65 99.3105 103.789C99.6946 103.928 100.049 104.122 100.368 104.367C100.686 104.612 100.978 104.938 101.241 105.348L107.925 115.484H103.336C103.042 115.484 102.794 115.468 102.585 115.425C102.378 115.386 102.198 115.326 102.045 115.245C101.894 115.168 101.763 115.067 101.651 114.954C101.54 114.839 101.433 114.707 101.331 114.556L96.3205 106.956C96.1358 106.675 95.9073 106.478 95.6302 106.363C95.3482 106.248 94.9714 106.19 94.4974 106.19H93.2504V115.484H88.1164V93.6262H93.2504V102.472Z" fill="white"/>
<path fill-rule="evenodd" clip-rule="evenodd" d="M129.1 93.6262V97.6447H123.052V115.484H118.067V97.6447H112.024V93.6262H129.1Z" fill="white"/>
<path fill-rule="evenodd" clip-rule="evenodd" d="M153.008 115.484H148.077V106.25H139.495V115.484H134.565V93.6262H139.495V102.772H148.077V93.6262H153.008V115.484Z" fill="white"/>
<path fill-rule="evenodd" clip-rule="evenodd" d="M176.546 104.554C176.546 103.498 176.405 102.549 176.129 101.702C175.85 100.854 175.452 100.138 174.931 99.5514C174.411 98.9645 173.773 98.5161 173.017 98.2016C172.262 97.8893 171.404 97.7321 170.439 97.7321C169.467 97.7321 168.603 97.8893 167.845 98.2016C167.082 98.5161 166.444 98.9645 165.922 99.5514C165.4 100.138 165.002 100.854 164.724 101.702C164.445 102.549 164.307 103.498 164.307 104.554C164.307 105.622 164.445 106.578 164.724 107.423C165.002 108.27 165.4 108.986 165.922 109.573C166.444 110.158 167.082 110.606 167.845 110.914C168.603 111.221 169.467 111.376 170.439 111.376C171.404 111.376 172.262 111.221 173.017 110.914C173.773 110.606 174.411 110.158 174.931 109.573C175.452 108.986 175.85 108.27 176.129 107.423C176.405 106.578 176.546 105.622 176.546 104.554ZM181.697 104.547C181.697 106.094 181.426 107.533 180.885 108.862C180.346 110.193 179.582 111.353 178.6 112.334C177.618 113.318 176.434 114.09 175.05 114.646C173.666 115.205 172.129 115.484 170.44 115.484C168.753 115.484 167.216 115.205 165.827 114.646C164.436 114.09 163.247 113.318 162.26 112.334C161.274 111.353 160.509 110.193 159.968 108.862C159.425 107.533 159.156 106.094 159.156 104.547C159.156 103.002 159.425 101.563 159.968 100.232C160.509 98.9012 161.274 97.7462 162.26 96.7673C163.247 95.7883 164.436 95.0207 165.827 94.462C167.216 93.9056 168.753 93.6262 170.44 93.6262C172.129 93.6262 173.666 93.9056 175.05 94.469C176.434 95.0324 177.618 95.8024 178.6 96.7814C179.582 97.7603 180.346 98.9153 180.885 100.246C181.426 101.577 181.697 103.012 181.697 104.547Z" fill="white"/>
<path fill-rule="evenodd" clip-rule="evenodd" d="M192.685 103.904H194.636C195.294 103.904 195.856 103.815 196.319 103.643C196.78 103.465 197.16 103.226 197.456 102.914C197.752 102.605 197.967 102.243 198.1 101.828C198.236 101.413 198.302 100.967 198.302 100.488C198.302 99.5285 198.002 98.7805 197.408 98.2411C196.81 97.7016 195.886 97.4307 194.636 97.4307H192.685V103.904ZM192.684 107.41V115.484H187.844V93.6262H194.636C196.144 93.6262 197.428 93.7893 198.494 94.1153C199.561 94.439 200.43 94.8921 201.104 95.4723C201.778 96.0549 202.266 96.7406 202.571 97.5294C202.876 98.3206 203.032 99.1837 203.032 100.114C203.032 100.824 202.94 101.495 202.759 102.125C202.576 102.756 202.305 103.339 201.947 103.876C201.59 104.41 201.149 104.89 200.631 105.309C200.109 105.729 199.51 106.074 198.834 106.345C199.157 106.515 199.46 106.724 199.742 106.973C200.024 107.225 200.269 107.529 200.48 107.889L204.921 115.484H200.537C199.723 115.484 199.141 115.166 198.788 114.525L195.321 108.189C195.168 107.908 194.991 107.709 194.785 107.589C194.578 107.47 194.289 107.41 193.918 107.41H192.684Z" fill="white"/>
<path fill-rule="evenodd" clip-rule="evenodd" d="M213.504 93.655C213.648 93.6766 213.778 93.7126 213.894 93.7678C214.012 93.8229 214.124 93.9021 214.228 94.0005C214.332 94.1012 214.455 94.2356 214.592 94.4035L224.626 107.524C224.584 107.102 224.559 106.697 224.538 106.301C224.519 105.907 224.508 105.535 224.508 105.185V93.6262H228.828V115.484H226.278C225.902 115.484 225.582 115.425 225.322 115.305C225.06 115.185 224.807 114.964 224.568 114.645L214.606 101.632C214.634 102.011 214.657 102.383 214.678 102.748C214.697 103.112 214.708 103.455 214.708 103.774V115.484H210.385V93.6262H212.968C213.179 93.6262 213.36 93.6358 213.504 93.655Z" fill="white"/>
<path fill-rule="evenodd" clip-rule="evenodd" d="M70.8641 127.097C70.665 127.097 70.4937 127.159 70.3502 127.282C70.2322 127.388 70.1396 127.516 70.0725 127.663L63.3485 144.739C63.293 144.879 63.242 145.024 63.1957 145.173C63.1425 145.024 63.0916 144.879 63.0337 144.739L56.2982 127.672C56.2334 127.508 56.1408 127.376 56.0227 127.275C55.8862 127.154 55.7172 127.097 55.5204 127.097H54.3886H53.9627L54.127 127.504L62.2861 148.089L62.3578 148.272H62.5476H63.8207H64.0105L64.0822 148.089L72.2436 127.504L72.4056 127.097H71.9797H70.8641Z" fill="white"/>
<path fill-rule="evenodd" clip-rule="evenodd" d="M80.854 127.097H80.602V127.393V147.976V148.272H80.854H82.1409H82.391V147.976V127.393V127.097H82.1409H80.854Z" fill="white"/>
<mask id="mask0" mask-type="alpha" maskUnits="userSpaceOnUse" x="89" y="127" width="14" height="22">
<path fill-rule="evenodd" clip-rule="evenodd" d="M102.885 148.272H89.6442L89.6442 127.125H102.885V148.272Z" fill="white"/>
</mask>
<g mask="url(#mask0)">
<path fill-rule="evenodd" clip-rule="evenodd" d="M101.17 138.198C100.669 137.805 100.094 137.473 99.4572 137.214C98.8417 136.96 98.1998 136.727 97.5483 136.516C96.9064 136.308 96.2788 136.099 95.6681 135.887C95.0812 135.683 94.5495 135.426 94.092 135.13C93.6441 134.84 93.2824 134.485 93.0142 134.078C92.7507 133.683 92.619 133.165 92.619 132.544C92.619 132.062 92.7124 131.596 92.892 131.161C93.0741 130.728 93.3423 130.339 93.692 130.01C94.0417 129.678 94.4848 129.412 95.0094 129.219C95.5363 129.024 96.1615 128.925 96.8656 128.925C97.5698 128.925 98.1662 129.01 98.6381 129.179C99.1243 129.351 99.5291 129.539 99.8429 129.739C100.164 129.942 100.422 130.128 100.612 130.292C100.868 130.523 101.084 130.631 101.29 130.631C101.563 130.631 101.79 130.49 101.924 130.234L102.274 129.579L102.375 129.391L102.221 129.243C101.503 128.535 100.693 128.001 99.8189 127.65C98.9399 127.302 97.9435 127.125 96.8513 127.125C95.874 127.125 94.9878 127.278 94.219 127.58C93.4477 127.883 92.7914 128.29 92.2645 128.791C91.7376 129.295 91.3304 129.885 91.0549 130.544C90.7819 131.201 90.6406 131.892 90.6406 132.6C90.6406 133.504 90.801 134.273 91.1148 134.883C91.4262 135.49 91.8429 136.003 92.3555 136.41C92.8585 136.81 93.4357 137.144 94.0705 137.398C94.6884 137.647 95.3303 137.873 95.9818 138.073C96.6261 138.273 97.2513 138.475 97.8596 138.682C98.4465 138.882 98.9782 139.132 99.4381 139.426C99.8812 139.708 100.243 140.066 100.516 140.487C100.777 140.899 100.911 141.438 100.911 142.087C100.911 142.703 100.801 143.285 100.583 143.821C100.367 144.355 100.054 144.819 99.6488 145.204C99.2417 145.593 98.7315 145.903 98.1351 146.131C97.5363 146.357 96.8441 146.473 96.0776 146.473C95.5172 146.473 95.0118 146.418 94.5735 146.31C94.1327 146.202 93.7375 146.068 93.4022 145.91C93.0621 145.755 92.7627 145.583 92.5112 145.4C92.2477 145.211 92.025 145.037 91.8382 144.875L91.3424 144.454C91.1483 144.292 90.9831 144.216 90.8226 144.216C90.6501 144.216 90.4034 144.27 90.1855 144.536L89.7615 145.186L89.6442 145.369L89.7903 145.531C90.5448 146.371 91.4358 147.044 92.4369 147.531C93.4453 148.023 94.6621 148.272 96.0489 148.272C97.1219 148.272 98.0896 148.105 98.9303 147.776C99.7734 147.447 100.497 146.988 101.081 146.411C101.666 145.837 102.118 145.15 102.425 144.374C102.729 143.6 102.885 142.765 102.885 141.889C102.885 141.023 102.724 140.282 102.413 139.689C102.102 139.104 101.682 138.602 101.17 138.198Z" fill="white"/>
</g>
<path fill-rule="evenodd" clip-rule="evenodd" d="M110.91 127.097H110.657V127.393V147.976V148.272H110.91H112.196H112.446V147.976V127.393V127.097H112.196H110.91Z" fill="white"/>
<mask id="mask1" mask-type="alpha" maskUnits="userSpaceOnUse" x="120" y="127" width="21" height="22">
<path fill-rule="evenodd" clip-rule="evenodd" d="M140.42 148.202H120.754L120.754 127.126H140.42V148.202Z" fill="white"/>
</mask>
<g mask="url(#mask1)">
<path fill-rule="evenodd" clip-rule="evenodd" d="M138.343 137.657C138.343 139.024 138.153 140.263 137.78 141.339C137.41 142.406 136.879 143.325 136.206 144.066C135.535 144.805 134.717 145.377 133.771 145.766C132.821 146.155 131.749 146.352 130.585 146.352C129.441 146.352 128.383 146.155 127.44 145.766C126.497 145.377 125.675 144.805 124.995 144.064C124.315 143.323 123.775 142.406 123.4 141.337C123.022 140.265 122.83 139.027 122.83 137.657C122.83 136.297 123.022 135.062 123.4 133.983C123.778 132.911 124.315 131.992 124.995 131.249C125.675 130.51 126.497 129.935 127.44 129.541C128.385 129.148 129.443 128.948 130.585 128.948C131.747 128.948 132.821 129.148 133.771 129.541C134.717 129.935 135.535 130.51 136.206 131.249C136.879 131.99 137.41 132.911 137.78 133.983C138.153 135.064 138.343 136.3 138.343 137.657ZM137.697 130.025C136.831 129.101 135.785 128.379 134.581 127.879C133.382 127.38 132.036 127.126 130.579 127.126C129.143 127.126 127.806 127.382 126.605 127.886C125.402 128.393 124.355 129.113 123.492 130.032C122.629 130.951 121.951 132.07 121.472 133.362C120.994 134.649 120.754 136.096 120.754 137.665C120.754 139.243 120.994 140.694 121.472 141.982C121.951 143.274 122.631 144.395 123.492 145.312C124.355 146.231 125.402 146.948 126.605 147.45C127.806 147.95 129.143 148.203 130.579 148.203C132.036 148.203 133.382 147.95 134.581 147.45C135.785 146.951 136.831 146.231 137.697 145.312C138.557 144.395 139.235 143.274 139.709 141.982C140.181 140.692 140.42 139.24 140.42 137.665C140.42 136.098 140.181 134.649 139.709 133.362C139.235 132.07 138.56 130.949 137.697 130.025Z" fill="white"/>
</g>
<path fill-rule="evenodd" clip-rule="evenodd" d="M162.959 127.097H161.657H161.362V127.393V144.523L148.694 127.492C148.572 127.33 148.452 127.227 148.325 127.171C148.208 127.121 148.064 127.097 147.886 127.097H147.155H146.86V127.393V147.976V148.272H147.155H148.457H148.749V147.976V130.762L161.48 147.863C161.662 148.127 161.931 148.272 162.249 148.272H162.959H163.254V147.976V127.393V127.097H162.959Z" fill="white"/>
</svg>
