<svg width="264" height="50" viewBox="0 0 264 50" fill="none" xmlns="http://www.w3.org/2000/svg">
<g clip-path="url(#clip0)">
<path d="M77.8099 13.6364C68.7597 5.21064 56.7296 0 43.3751 0C30.5724 0 18.763 4.87805 9.82324 12.8603C10.2647 13.969 10.9269 15.5211 11.4788 16.6297L11.5891 16.5188C13.9069 14.6341 17.3283 12.5277 20.9704 10.7539C24.6125 9.20177 28.365 8.09313 31.2346 7.5388C31.8968 7.31707 32.559 7.31707 33.2212 7.20621C33.7731 7.09534 34.3249 7.09534 34.7664 6.98448C35.6493 6.87361 36.0908 6.87361 36.0908 6.87361C36.0908 6.87361 35.6493 6.98448 34.8768 7.31707C34.4353 7.42794 33.9938 7.64967 33.442 7.76053C32.8901 7.98226 32.2279 8.09313 31.5657 8.42572C28.9169 9.4235 25.4955 11.1973 22.5155 13.3038C19.5356 15.5211 16.7764 17.9601 15.0105 20.0665C14.7898 20.2882 14.5691 20.51 14.3483 20.8426L14.238 20.9534C15.1209 22.1729 16.0038 23.2816 17.1075 24.3902C23.84 17.5166 33.1109 13.3038 43.4855 13.3038C44.4788 13.3038 45.4721 13.3038 46.4654 13.4146C55.957 14.1907 64.4553 18.5144 70.5256 25.0554C70.9671 25.6098 71.4085 26.0532 71.85 26.6075C71.85 26.6075 71.9604 26.7184 71.9604 26.8293C72.4018 27.3836 72.8433 27.8271 73.1744 28.3814C74.2781 29.8226 75.161 31.2639 76.044 32.816C76.3751 33.3703 76.5958 33.9246 76.9269 34.4789V34.5898C77.258 35.1441 77.4788 35.8093 77.6995 36.3636C77.9202 36.1419 78.141 35.9202 78.4721 35.6984C81.6727 32.4834 84.5423 28.9357 86.86 25.0554C84.3216 20.7317 81.3416 16.9623 77.8099 13.6364Z" fill="white"/>
<path d="M75.1605 33.481C74.4983 33.9245 73.8361 34.368 73.1739 34.9223C72.8428 35.144 72.5117 35.4766 72.0702 35.6983C71.7391 35.9201 71.2976 36.1418 70.8562 36.4744C70.0836 37.0287 69.2007 37.4722 68.3177 37.9156C67.8763 38.1374 67.4348 38.3591 66.9933 38.5808L65.6689 39.246C62.0267 40.909 58.2742 42.0176 55.4047 42.4611C54.7425 42.572 54.0803 42.6828 53.4181 42.7937C52.8662 42.9045 52.3144 42.9045 51.8729 42.9045C50.99 43.0154 50.5485 43.0154 50.5485 43.0154C50.5485 43.0154 50.99 42.9045 51.7625 42.6828C52.204 42.572 52.6455 42.4611 53.1973 42.2394C53.7492 42.0176 54.301 41.7959 55.0736 41.5742C57.7224 40.5764 61.1438 38.8025 64.1237 36.6961L65.2274 35.9201C65.5585 35.5875 65.8896 35.3657 66.3311 35.0332C67.1037 34.4788 67.7659 33.9245 68.3177 33.2593C68.6488 32.9267 68.9799 32.705 69.2007 32.3724C69.5318 32.0398 69.7525 31.8181 69.9732 31.4855C70.5251 30.9312 70.9666 30.3768 71.5184 29.8225C71.7391 29.4899 72.0702 29.2682 72.291 28.9356C71.408 27.7161 70.5251 26.6074 69.4214 25.4988C62.689 32.3724 53.4181 36.5853 43.0435 36.5853C42.0502 36.5853 41.0569 36.5853 40.0635 36.4744C30.5719 35.6983 22.1839 31.3746 16.0033 24.8336C15.5619 24.2793 15.1204 23.8358 14.6789 23.2815L14.5686 23.1706C12.5819 20.8425 10.9264 18.1817 9.60201 15.4101V15.2992C9.2709 14.7449 9.05017 14.0797 8.82943 13.5254C8.6087 13.7471 8.38796 13.9689 8.05686 14.1906C5.07692 17.5165 2.31773 21.0642 0 25.0553C2.42809 29.2682 5.51839 33.1485 9.05017 36.4744C17.99 44.9001 30.1304 50.1108 43.3746 50.1108C56.2876 50.1108 67.9866 45.2327 76.9264 37.2504C76.4849 36.1418 75.8227 34.5897 75.2709 33.481H75.1605Z" fill="white"/>
<path d="M100.324 21.1754V5.54346H106.063C107.167 5.54346 108.049 5.65432 108.822 5.87605C109.595 6.09778 110.146 6.31951 110.698 6.76297C111.14 7.09556 111.471 7.53902 111.692 8.09335C111.912 8.64767 112.023 9.20199 112.023 9.86718C112.023 10.1998 112.023 10.5324 111.912 10.865C111.802 11.1976 111.692 11.5302 111.471 11.7519C111.25 12.0845 111.029 12.3062 110.698 12.5279C110.367 12.7497 109.926 12.9714 109.484 13.0823C110.478 13.304 111.25 13.7474 111.802 14.3018C112.243 14.8561 112.575 15.6321 112.575 16.4082C112.575 17.0734 112.464 17.7386 112.243 18.2929C112.023 18.8472 111.581 19.4015 111.14 19.7341C110.698 20.1776 110.036 20.5102 109.264 20.7319C108.491 20.9537 107.718 21.0645 106.835 21.0645H100.324V21.1754ZM103.966 12.1953H105.842C106.284 12.1953 106.615 12.1953 106.946 12.0845C107.277 11.9736 107.498 11.9736 107.718 11.7519C107.939 11.641 108.16 11.4193 108.27 11.1976C108.381 10.9758 108.491 10.6432 108.491 10.3106C108.491 9.97805 108.491 9.64545 108.381 9.42372C108.16 9.09113 108.049 8.8694 107.829 8.75853C107.608 8.64767 107.387 8.5368 107.056 8.42594C106.725 8.31508 106.394 8.31508 105.952 8.31508H103.855V12.1953H103.966ZM103.966 14.5235V18.4038H106.504C106.946 18.4038 107.387 18.2929 107.718 18.182C108.049 18.0712 108.27 17.8494 108.381 17.7386C108.601 17.5168 108.712 17.2951 108.712 17.0734C108.822 16.8517 108.822 16.6299 108.822 16.2973C108.822 15.9647 108.822 15.743 108.712 15.5213C108.601 15.2996 108.491 15.0778 108.381 14.967C108.16 14.8561 107.939 14.7452 107.608 14.6344C107.277 14.5235 106.946 14.5235 106.504 14.5235H103.966Z" fill="white"/>
<path d="M119.859 18.2929H125.598V21.1754H116.217V5.54346H119.859V18.2929Z" fill="white"/>
<path d="M144.361 21.1754H141.602C141.271 21.1754 141.05 21.0645 140.829 20.9537C140.609 20.8428 140.498 20.6211 140.388 20.3993L139.505 17.6277H133.545L132.662 20.3993C132.552 20.6211 132.441 20.7319 132.221 20.9537C132 21.0645 131.779 21.1754 131.448 21.1754H128.689L134.649 5.54346H138.291L144.361 21.1754ZM134.428 15.1887H138.622L137.187 10.9758C137.077 10.7541 136.967 10.4215 136.856 9.97805C136.746 9.64545 136.635 9.20199 136.525 8.75853C136.415 9.20199 136.304 9.53459 136.194 9.97805C136.084 10.3106 135.973 10.6432 135.863 10.9758L134.428 15.1887Z" fill="white"/>
<path d="M157.715 17.1843C157.826 17.1843 157.936 17.1843 157.936 17.1843C158.046 17.1843 158.157 17.2951 158.157 17.406L159.592 18.9581C158.929 19.7342 158.157 20.3994 157.274 20.732C156.28 21.1754 155.177 21.3971 153.963 21.3971C152.749 21.3971 151.755 21.1754 150.762 20.8428C149.879 20.3994 148.996 19.845 148.334 19.1798C147.672 18.5147 147.23 17.6277 146.789 16.63C146.458 15.6322 146.237 14.6344 146.237 13.4149C146.237 12.3062 146.458 11.1976 146.789 10.1998C147.23 9.20202 147.782 8.42597 148.444 7.64991C149.107 6.98472 149.99 6.4304 150.983 5.98694C151.976 5.54348 153.08 5.43262 154.294 5.43262C154.846 5.43262 155.398 5.43262 155.949 5.54348C156.501 5.65435 156.943 5.76521 157.384 5.98694C157.826 6.20867 158.267 6.4304 158.598 6.65213C158.929 6.87386 159.26 7.20645 159.592 7.53905L158.377 9.20202C158.267 9.31288 158.157 9.42375 158.046 9.42375C157.936 9.53461 157.826 9.53461 157.605 9.53461C157.495 9.53461 157.384 9.53461 157.274 9.42375C157.163 9.31288 157.053 9.31288 156.943 9.20202C156.832 9.09115 156.722 8.98029 156.501 8.98029C156.391 8.86942 156.17 8.75856 155.949 8.75856C155.729 8.64769 155.508 8.64769 155.177 8.53683C154.846 8.42597 154.515 8.42597 154.183 8.42597C153.521 8.42597 152.969 8.53683 152.418 8.75856C151.866 8.98029 151.424 9.31288 150.983 9.75634C150.541 10.1998 150.321 10.7541 150.1 11.3084C149.879 11.9736 149.769 12.6388 149.769 13.4149C149.769 14.1909 149.879 14.967 150.1 15.5213C150.321 16.1865 150.652 16.63 150.983 17.0734C151.314 17.5169 151.755 17.8495 152.307 18.0712C152.749 18.2929 153.301 18.4038 153.852 18.4038C154.183 18.4038 154.515 18.4038 154.735 18.4038C154.956 18.4038 155.287 18.2929 155.508 18.2929C155.729 18.1821 155.949 18.0712 156.17 17.9603C156.391 17.8495 156.612 17.6277 156.832 17.5169C156.943 17.406 157.053 17.406 157.163 17.2951C157.495 17.1843 157.605 17.1843 157.715 17.1843Z" fill="white"/>
<path d="M167.096 11.8627H167.648C168.2 11.8627 168.531 11.641 168.752 11.3084L172.283 6.20865C172.504 5.87605 172.725 5.76519 172.946 5.65432C173.166 5.54346 173.497 5.54346 173.829 5.54346H176.919L172.283 11.8627C172.173 12.0845 171.952 12.3062 171.732 12.4171C171.511 12.5279 171.4 12.6388 171.18 12.7497C171.4 12.8605 171.732 12.9714 171.952 13.1931C172.173 13.4149 172.394 13.6366 172.615 13.8583L177.25 21.0645H174.049C173.829 21.0645 173.718 21.0645 173.497 21.0645C173.387 21.0645 173.277 20.9537 173.166 20.9537C173.056 20.8428 172.946 20.8428 172.835 20.7319C172.725 20.6211 172.725 20.5102 172.615 20.3993L169.083 14.967C168.972 14.7452 168.752 14.6344 168.641 14.5235C168.421 14.4126 168.2 14.4126 167.869 14.4126H166.986V21.0645H163.344V5.54346H166.986V11.8627H167.096Z" fill="white"/>
<path d="M192.48 5.54346V8.42594H188.066V21.1754H184.424V8.42594H180.009V5.54346H192.48Z" fill="white"/>
<path d="M209.698 21.1754H206.056V14.6344H199.765V21.1754H196.123V5.54346H199.765V12.0845H206.056V5.54346H209.698V21.1754Z" fill="white"/>
<path d="M230.007 13.4149C230.007 14.5235 229.786 15.6322 229.455 16.5191C229.013 17.5169 228.572 18.2929 227.799 19.069C227.137 19.7342 226.254 20.3994 225.261 20.732C224.267 21.1754 223.164 21.3971 221.95 21.3971C220.736 21.3971 219.632 21.1754 218.639 20.732C217.645 20.2885 216.762 19.7342 216.1 19.069C215.438 18.4038 214.886 17.5169 214.445 16.5191C214.003 15.5213 213.893 14.5235 213.893 13.4149C213.893 12.3062 214.114 11.1976 214.445 10.3107C214.886 9.31288 215.328 8.53683 216.1 7.76078C216.762 7.09559 217.645 6.54126 218.639 6.09781C219.632 5.65435 220.736 5.43262 221.95 5.43262C223.164 5.43262 224.267 5.65435 225.261 6.09781C226.254 6.54126 227.137 7.09559 227.799 7.76078C228.461 8.42597 229.013 9.31288 229.455 10.3107C229.786 11.1976 230.007 12.3062 230.007 13.4149ZM226.254 13.4149C226.254 12.6388 226.144 11.9736 225.923 11.3084C225.702 10.6433 225.481 10.1998 225.04 9.75634C224.709 9.31288 224.157 8.98029 223.716 8.75856C223.164 8.53683 222.612 8.42597 221.839 8.42597C221.177 8.42597 220.515 8.53683 219.963 8.75856C219.411 8.98029 218.97 9.31288 218.639 9.75634C218.308 10.1998 217.976 10.7541 217.756 11.3084C217.535 11.9736 217.425 12.6388 217.425 13.4149C217.425 14.1909 217.535 14.8561 217.756 15.5213C217.976 16.1865 218.197 16.63 218.639 17.0734C218.97 17.5169 219.522 17.8495 219.963 18.0712C220.515 18.2929 221.177 18.4038 221.839 18.4038C222.502 18.4038 223.164 18.2929 223.716 18.0712C224.267 17.8495 224.709 17.5169 225.04 17.0734C225.371 16.63 225.702 16.0756 225.923 15.5213C226.144 14.8561 226.254 14.1909 226.254 13.4149Z" fill="white"/>
<path d="M237.732 15.4104V21.1754H234.09V5.54346H239.166C240.27 5.54346 241.263 5.65432 242.036 5.87605C242.809 6.09778 243.471 6.43037 244.023 6.87383C244.574 7.31729 244.906 7.76075 245.126 8.31508C245.347 8.8694 245.457 9.53459 245.457 10.1998C245.457 10.7541 245.347 11.1976 245.237 11.641C245.126 12.0845 244.906 12.5279 244.685 12.8605C244.464 13.1931 244.133 13.6366 243.692 13.8583C243.25 14.1909 242.809 14.4126 242.367 14.6344C242.588 14.7452 242.809 14.8561 243.029 15.0778C243.25 15.2996 243.471 15.5213 243.581 15.743L246.892 21.1754H243.581C243.029 21.1754 242.588 20.9537 242.257 20.5102L239.718 15.9647C239.608 15.743 239.498 15.6321 239.277 15.5213C239.166 15.4104 238.946 15.4104 238.615 15.4104H237.732ZM237.732 12.8605H239.166C239.608 12.8605 240.049 12.7497 240.381 12.6388C240.712 12.5279 241.043 12.3062 241.263 12.0845C241.484 11.8627 241.595 11.641 241.705 11.3084C241.815 10.9758 241.815 10.6432 241.815 10.3106C241.815 9.64545 241.595 9.09113 241.153 8.75853C240.712 8.42594 240.049 8.20421 239.056 8.20421H237.621V12.8605H237.732Z" fill="white"/>
<path d="M252.742 5.65432C252.852 5.65432 252.963 5.65432 253.073 5.76519C253.183 5.76519 253.294 5.87605 253.294 5.87605C253.404 5.98692 253.514 6.09778 253.514 6.20865L260.909 15.5213C260.909 15.1887 260.909 14.967 260.799 14.6344C260.799 14.3018 260.799 14.08 260.799 13.8583V5.54346H263.999V21.1754H262.123C261.792 21.1754 261.571 21.1754 261.461 21.0645C261.24 20.9537 261.13 20.8428 260.909 20.6211L253.625 11.3084C253.625 11.5302 253.625 11.8627 253.625 12.0845C253.625 12.3062 253.625 12.6388 253.625 12.8605V21.1754H250.424V5.54346H252.3C252.521 5.54346 252.632 5.54346 252.742 5.65432Z" fill="white"/>
<path d="M112.465 29.6006C112.355 29.6006 112.134 29.6006 112.024 29.7114C111.913 29.8223 111.913 29.9332 111.803 30.044L106.837 42.2392C106.837 42.35 106.726 42.35 106.726 42.4609C106.726 42.35 106.616 42.35 106.616 42.2392L101.649 30.1549C101.649 30.044 101.539 29.9332 101.429 29.8223C101.318 29.7114 101.208 29.7114 100.987 29.7114H100.104H99.773L99.8834 30.044L105.843 44.6782L105.954 44.7891H106.064H106.947H107.057L107.168 44.6782L113.128 30.044L113.238 29.7114H112.907H112.465V29.6006Z" fill="white"/>
<path d="M118.645 29.6006H118.425V29.8223V44.4565V44.6782H118.645H119.749H119.97V44.4565V29.8223V29.6006H119.749H118.645Z" fill="white"/>
<path d="M133.656 37.472C133.325 37.1394 132.884 36.9177 132.442 36.6959C132.001 36.4742 131.559 36.3633 131.118 36.1416C130.676 36.0307 130.235 35.809 129.793 35.6981C129.352 35.5873 129.021 35.3656 128.69 35.1438C128.359 34.9221 128.138 34.7004 127.917 34.3678C127.696 34.0352 127.586 33.7026 127.586 33.2591C127.586 32.9265 127.696 32.5939 127.807 32.2613C127.917 31.9287 128.138 31.707 128.359 31.4853C128.579 31.2636 128.911 31.0418 129.242 30.931C129.573 30.8201 130.014 30.7092 130.566 30.7092C131.118 30.7092 131.449 30.8201 131.78 30.931C132.111 31.0418 132.442 31.1527 132.663 31.3744C132.884 31.4853 133.105 31.707 133.215 31.8179C133.436 32.0396 133.546 32.0396 133.767 32.0396C133.987 32.0396 134.098 31.9287 134.208 31.707L134.429 31.2636L134.539 31.1527L134.429 31.0418C133.877 30.4875 133.325 30.1549 132.663 29.9332C132.001 29.7114 131.339 29.6006 130.566 29.6006C129.904 29.6006 129.242 29.7114 128.69 29.9332C128.138 30.1549 127.696 30.4875 127.255 30.8201C126.924 31.1527 126.593 31.5962 126.372 32.1505C126.151 32.5939 126.041 33.1483 126.041 33.7026C126.041 34.3678 126.151 34.9221 126.372 35.3656C126.593 35.809 126.924 36.1416 127.255 36.4742C127.586 36.8068 128.028 37.0285 128.469 37.2503C128.911 37.472 129.352 37.5828 129.793 37.6937C130.235 37.8046 130.676 38.0263 131.118 38.1372C131.559 38.248 131.89 38.4698 132.222 38.6915C132.553 38.9132 132.773 39.135 132.994 39.4675C133.215 39.8001 133.325 40.1327 133.325 40.5762C133.325 41.0197 133.215 41.4631 133.105 41.7957C132.994 42.1283 132.773 42.4609 132.442 42.7935C132.111 43.1261 131.78 43.3478 131.339 43.4587C130.897 43.5695 130.456 43.6804 129.904 43.6804C129.462 43.6804 129.131 43.6804 128.8 43.5695C128.469 43.4587 128.248 43.3478 127.917 43.2369C127.696 43.1261 127.476 43.0152 127.255 42.9044C127.034 42.7935 126.924 42.6826 126.814 42.5718L126.482 42.2392C126.372 42.1283 126.262 42.0174 126.041 42.0174C125.931 42.0174 125.71 42.0174 125.599 42.2392L125.268 42.6826L125.158 42.7935L125.268 42.9044C125.82 43.5695 126.482 44.013 127.145 44.3456C127.917 44.6782 128.69 44.8999 129.683 44.8999C130.456 44.8999 131.118 44.7891 131.78 44.5673C132.332 44.3456 132.884 44.013 133.325 43.5695C133.767 43.1261 134.098 42.6826 134.319 42.1283C134.539 41.574 134.65 40.9088 134.65 40.3545C134.65 39.6893 134.539 39.135 134.319 38.6915C134.319 38.1372 133.987 37.8046 133.656 37.472Z" fill="white"/>
<path d="M140.719 29.6006H140.388V29.8223V44.4565V44.6782H140.719H141.712H141.933V44.4565V29.8223V29.6006H141.712H140.719Z" fill="white"/>
<path d="M159.703 31.4853C159.041 30.8201 158.269 30.2658 157.386 29.9332C156.503 29.6006 155.509 29.3789 154.516 29.3789C153.523 29.3789 152.529 29.6006 151.647 29.9332C150.764 30.2658 149.991 30.8201 149.329 31.4853C148.667 32.1505 148.225 32.9266 147.894 33.9244C147.563 34.9221 147.342 35.9199 147.342 37.0286C147.342 38.1372 147.563 39.2459 147.894 40.2436C148.225 41.2414 148.777 42.0175 149.329 42.6827C149.991 43.3479 150.764 43.9022 151.647 44.2348C152.529 44.5674 153.523 44.7891 154.516 44.7891C155.62 44.7891 156.613 44.5674 157.386 44.2348C158.269 43.9022 159.041 43.3479 159.703 42.6827C160.366 42.0175 160.807 41.2414 161.138 40.2436C161.469 39.2459 161.69 38.2481 161.69 37.0286C161.69 35.9199 161.469 34.8113 161.138 33.9244C160.917 33.0374 160.366 32.2614 159.703 31.4853ZM160.145 37.1394C160.145 38.1372 160.034 39.0241 159.703 39.8002C159.483 40.5762 159.041 41.2414 158.6 41.7958C158.158 42.3501 157.496 42.7935 156.834 43.0153C156.172 43.3479 155.399 43.4587 154.516 43.4587C153.633 43.4587 152.971 43.3479 152.198 43.0153C151.536 42.6827 150.874 42.3501 150.432 41.7958C149.991 41.2414 149.55 40.5762 149.329 39.8002C149.108 39.0241 148.887 38.1372 148.887 37.1394C148.887 36.1417 148.998 35.2547 149.329 34.4787C149.55 33.7026 149.991 33.0374 150.432 32.4831C150.874 31.9288 151.536 31.4853 152.198 31.2636C152.861 30.931 153.633 30.8201 154.516 30.8201C155.399 30.8201 156.172 30.931 156.834 31.2636C157.496 31.5962 158.158 31.9288 158.6 32.4831C159.041 33.0374 159.483 33.7026 159.703 34.4787C160.034 35.2547 160.145 36.1417 160.145 37.1394Z" fill="white"/>
<path d="M177.803 29.6006H176.92H176.699V29.8223V41.9066L167.759 29.8223C167.649 29.7115 167.539 29.6006 167.539 29.6006C167.428 29.6006 167.318 29.4897 167.208 29.4897H166.656H166.435V29.7115V44.3456V44.5674H166.656H167.539H167.759V44.3456V32.1505L176.81 44.2348C176.92 44.4565 177.141 44.5674 177.361 44.5674H177.913H178.134V44.3456V29.8223V29.6006H177.803Z" fill="white"/>
</g>
<defs>
<clipPath id="clip0">
<rect width="264" height="50" fill="white"/>
</clipPath>
</defs>
</svg>
