<svg width="24" height="24" viewBox="0 0 24 24" fill="none" xmlns="http://www.w3.org/2000/svg">
<path fill-rule="evenodd" clip-rule="evenodd" d="M4.63821 0H19.3618C21.9193 0 23.9995 2.07976 24 4.63734V9.53658V19.3622C24 21.9198 21.9198 24 19.3623 24H4.63821C2.08068 24 0 21.9198 0 19.3622V9.53707V4.63782C0 2.08024 2.08068 0 4.63821 0ZM21.2227 2.76381L20.6921 2.76575L17.1543 2.77737L17.1683 6.8449L21.2227 6.83183V3.29198V2.76381ZM8.57447 9.53658C9.34323 8.47298 10.5903 7.77537 12 7.77537C13.4097 7.77537 14.6568 8.47298 15.4246 9.53658C15.9246 10.2308 16.2243 11.0799 16.2243 11.9998C16.2243 14.3288 14.3276 16.2237 11.9995 16.2237C9.67 16.2237 7.77521 14.3288 7.77521 11.9998C7.7757 11.0799 8.07439 10.2308 8.57447 9.53658ZM19.3618 21.6612C20.6297 21.6612 21.6613 20.6306 21.6613 19.3617V9.53658H18.0779C18.3873 10.2976 18.562 11.1288 18.562 11.9998C18.562 15.6175 15.6187 18.5629 12 18.5629C8.38083 18.5629 5.43747 15.6175 5.43747 11.9998C5.43747 11.1288 5.61126 10.2976 5.92061 9.53658H2.33823V19.3617C2.33823 20.6306 3.36986 21.6612 4.63821 21.6612H19.3618Z" fill="white"/>
</svg>
